<svg width="23" height="23" viewBox="0 0 23 23" fill="none" xmlns="http://www.w3.org/2000/svg">
<path d="M6.93829 1.9165H5.11746C3.01871 1.9165 1.91663 3.01859 1.91663 5.10775V6.92859C1.91663 9.01775 3.01871 10.1198 5.10788 10.1198H6.92871C9.01788 10.1198 10.12 9.01775 10.12 6.92859V5.10775C10.1295 3.01859 9.02746 1.9165 6.93829 1.9165ZM17.892 1.9165H16.0712C13.982 1.9165 12.88 3.01859 12.88 5.10775V6.92859C12.88 9.01775 13.982 10.1198 16.0712 10.1198H17.892C19.9812 10.1198 21.0833 9.01775 21.0833 6.92859V5.10775C21.0833 3.01859 19.9812 1.9165 17.892 1.9165ZM17.892 12.8703H16.0712C13.982 12.8703 12.88 13.9723 12.88 16.0615V17.8823C12.88 19.9715 13.982 21.0736 16.0712 21.0736H17.892C19.9812 21.0736 21.0833 19.9715 21.0833 17.8823V16.0615C21.0833 13.9723 19.9812 12.8703 17.892 12.8703ZM6.93829 12.8703H5.11746C3.01871 12.8703 1.91663 13.9723 1.91663 16.0615V17.8823C1.91663 19.9811 3.01871 21.0832 5.10788 21.0832H6.92871C9.01788 21.0832 10.12 19.9811 10.12 17.8919V16.0711C10.1295 13.9723 9.02746 12.8703 6.93829 12.8703Z" fill="black"/>
</svg>
