<svg width="56" height="56" viewBox="0 0 56 56" fill="none" xmlns="http://www.w3.org/2000/svg">
<path fill-rule="evenodd" clip-rule="evenodd" d="M28 52.75C41.6689 52.75 52.75 41.6689 52.75 28C52.75 14.3311 41.6689 3.25 28 3.25C14.3311 3.25 3.25 14.3311 3.25 28C3.25 41.6689 14.3311 52.75 28 52.75ZM28 55.5C43.1882 55.5 55.5 43.1882 55.5 28C55.5 12.8118 43.1882 0.5 28 0.5C12.8118 0.5 0.5 12.8118 0.5 28C0.5 43.1882 12.8118 55.5 28 55.5Z" fill="black"/>
<path d="M11.5 43.9909C11.5 42.5706 12.5615 41.3702 13.975 41.2134C24.5831 40.0392 31.465 40.1451 42.0497 41.2396C42.5783 41.2951 43.0793 41.5033 43.4914 41.8388C43.9036 42.1744 44.2091 42.6227 44.3707 43.129C44.5323 43.6353 44.5429 44.1777 44.4013 44.69C44.2597 45.2022 43.972 45.6621 43.5732 46.0136C31.0814 56.9022 23.9424 56.7523 12.38 46.0246C11.8163 45.5021 11.5 44.7596 11.5 43.9923V43.9909Z" fill="black"/>
<path fill-rule="evenodd" clip-rule="evenodd" d="M41.9081 42.607C31.4073 41.5207 24.6244 41.419 14.1249 42.5809C13.7793 42.6211 13.4606 42.7875 13.23 43.048C12.9994 43.3086 12.873 43.645 12.875 43.993C12.875 44.3862 13.0386 44.7589 13.315 45.0174C19.046 50.3331 23.3883 52.7352 27.6329 52.7504C31.8926 52.7655 36.4686 50.3826 42.6699 44.9789C42.8669 44.8035 43.0087 44.5747 43.0781 44.3203C43.1475 44.0658 43.1415 43.7967 43.0608 43.5456C42.9801 43.2945 42.8282 43.0723 42.6236 42.9059C42.419 42.7395 42.1704 42.6361 41.9081 42.6084V42.607ZM13.8238 39.8474C24.5433 38.6607 31.5255 38.768 42.1928 39.8721C42.9879 39.9551 43.7416 40.2682 44.3616 40.7729C44.9816 41.2777 45.441 41.9523 45.6835 42.7141C45.926 43.4759 45.9411 44.2919 45.727 45.0622C45.5129 45.8325 45.0789 46.5236 44.478 47.051C38.1874 52.5345 32.9486 55.521 27.6246 55.5004C22.2855 55.4811 17.2778 52.4437 11.4464 47.0331C11.0289 46.6442 10.696 46.1734 10.4687 45.6501C10.2413 45.1268 10.1243 44.5622 10.125 43.9916C10.123 42.9665 10.4993 41.9766 11.1818 41.2116C11.8643 40.4467 12.805 39.9604 13.8238 39.846V39.8474Z" fill="black"/>
<path d="M39 22.5C39 25.4174 37.8411 28.2153 35.7782 30.2782C33.7153 32.3411 30.9174 33.5 28 33.5C25.0826 33.5 22.2847 32.3411 20.2218 30.2782C18.1589 28.2153 17 25.4174 17 22.5C17 19.5826 18.1589 16.7847 20.2218 14.7218C22.2847 12.6589 25.0826 11.5 28 11.5C30.9174 11.5 33.7153 12.6589 35.7782 14.7218C37.8411 16.7847 39 19.5826 39 22.5Z" fill="black"/>
<path fill-rule="evenodd" clip-rule="evenodd" d="M28 30.75C30.188 30.75 32.2865 29.8808 33.8336 28.3336C35.3808 26.7865 36.25 24.688 36.25 22.5C36.25 20.312 35.3808 18.2135 33.8336 16.6664C32.2865 15.1192 30.188 14.25 28 14.25C25.812 14.25 23.7135 15.1192 22.1664 16.6664C20.6192 18.2135 19.75 20.312 19.75 22.5C19.75 24.688 20.6192 26.7865 22.1664 28.3336C23.7135 29.8808 25.812 30.75 28 30.75ZM28 33.5C30.9174 33.5 33.7153 32.3411 35.7782 30.2782C37.8411 28.2153 39 25.4174 39 22.5C39 19.5826 37.8411 16.7847 35.7782 14.7218C33.7153 12.6589 30.9174 11.5 28 11.5C25.0826 11.5 22.2847 12.6589 20.2218 14.7218C18.1589 16.7847 17 19.5826 17 22.5C17 25.4174 18.1589 28.2153 20.2218 30.2782C22.2847 32.3411 25.0826 33.5 28 33.5Z" fill="black"/>
</svg>
