<svg width="238" height="87" viewBox="0 0 238 87" fill="none" xmlns="http://www.w3.org/2000/svg">
<path d="M0 1.73535H196.336C218.403 1.73535 236.292 19.6245 236.292 41.6918V45.058C236.292 67.1253 218.403 85.0145 196.336 85.0145H0V1.73535Z" fill="url(#paint0_linear_314_5557)"/>
<g clip-path="url(#clip0_314_5557)">
<path fill-rule="evenodd" clip-rule="evenodd" d="M198.266 69.1733C204.568 69.1756 210.613 66.4598 215.071 61.6233C219.529 56.7867 222.034 50.2256 222.036 43.3833C222.039 36.541 219.537 29.978 215.082 25.1381C210.628 20.2982 204.585 17.5778 198.282 17.5754C191.98 17.5731 185.935 20.2889 181.478 25.1255C177.02 29.962 174.514 36.5231 174.512 43.3654C174.51 50.2077 177.011 56.7707 181.466 61.6106C185.921 66.4505 191.964 69.1709 198.266 69.1733ZM198.284 13.8899C205.486 13.8926 212.392 17.0016 217.484 22.5329C222.575 28.0642 225.433 35.5648 225.431 43.3846C225.428 51.2043 222.565 58.7028 217.47 64.2303C212.376 69.7577 205.467 72.8615 198.265 72.8588C191.062 72.8561 184.156 69.7471 179.065 64.2158C173.974 58.6845 171.115 51.1839 171.117 43.3642C171.12 35.5444 173.983 28.046 179.078 22.5185C184.173 16.991 191.081 13.8872 198.284 13.8899ZM186.394 41.5271C185.943 41.5269 185.512 41.7209 185.193 42.0664C184.875 42.4119 184.696 42.8805 184.696 43.3693C184.696 43.858 184.874 44.3268 185.192 44.6725C185.511 45.0182 185.942 45.2125 186.392 45.2127L206.057 45.2201L198.767 53.1265C198.448 53.4724 198.269 53.9417 198.268 54.431C198.268 54.9204 198.447 55.3898 198.766 55.7359C199.084 56.0821 199.517 56.2766 199.967 56.2768C200.418 56.277 200.85 56.0827 201.169 55.7368L211.357 44.684C211.515 44.5128 211.64 44.3095 211.726 44.0857C211.811 43.8618 211.856 43.6219 211.856 43.3795C211.856 43.1371 211.812 42.8971 211.726 42.6731C211.641 42.4492 211.515 42.2458 211.357 42.0746L201.177 31.0141C200.858 30.6679 200.426 30.4734 199.976 30.4732C199.525 30.473 199.093 30.6673 198.774 31.0132C198.455 31.3591 198.276 31.8283 198.276 32.3177C198.275 32.807 198.454 33.2764 198.773 33.6226L206.059 41.5345L186.394 41.5271Z" fill="#A65756"/>
</g>
<path d="M63.1365 30.4837C62.8808 28.3246 61.8439 26.6484 60.0257 25.4553C58.2075 24.2621 55.9774 23.6655 53.3354 23.6655C51.4035 23.6655 49.7132 23.978 48.2643 24.603C46.8297 25.228 45.7075 26.0874 44.8979 27.1811C44.1024 28.2749 43.7047 29.5178 43.7047 30.9098C43.7047 32.0746 43.9817 33.076 44.5356 33.9141C45.1038 34.7379 45.8283 35.4268 46.7089 35.9808C47.5896 36.5206 48.5129 36.968 49.4788 37.3232C50.4447 37.6641 51.3325 37.9411 52.1422 38.1541L56.574 39.3473C57.7104 39.6456 58.9746 40.0575 60.3666 40.5831C61.7729 41.1087 63.1152 41.826 64.3936 42.7351C65.6862 43.63 66.7516 44.7805 67.5896 46.1868C68.4277 47.593 68.8467 49.3189 68.8467 51.3643C68.8467 53.7223 68.2288 55.853 66.993 57.7564C65.7714 59.6598 63.9817 61.1726 61.6237 62.2947C59.28 63.4169 56.432 63.978 53.0797 63.978C49.9547 63.978 47.2487 63.4737 44.9618 62.4652C42.6891 61.4567 40.8993 60.0504 39.5925 58.2464C38.2998 56.4425 37.5683 54.3473 37.3979 51.9609H42.8524C42.9945 53.6087 43.5484 54.9723 44.5143 56.0518C45.4945 57.1172 46.7302 57.9126 48.2217 58.4382C49.7274 58.9496 51.3467 59.2053 53.0797 59.2053C55.0967 59.2053 56.9078 58.8786 58.5129 58.2251C60.118 57.5575 61.3893 56.6342 62.3268 55.4553C63.2643 54.2621 63.7331 52.87 63.7331 51.2791C63.7331 49.8303 63.3283 48.6513 62.5186 47.7422C61.7089 46.8331 60.6436 46.0945 59.3226 45.5263C58.0016 44.9581 56.574 44.4609 55.0399 44.0348L49.6706 42.5007C46.2615 41.5206 43.5626 40.1214 41.574 38.3033C39.5854 36.4851 38.591 34.1058 38.591 31.1655C38.591 28.7223 39.2516 26.5916 40.5726 24.7734C41.9078 22.9411 43.6976 21.5206 45.9419 20.5121C48.2004 19.4893 50.7217 18.978 53.5058 18.978C56.3183 18.978 58.8183 19.4822 61.0058 20.4908C63.1933 21.4851 64.9263 22.8487 66.2047 24.5817C67.4973 26.3146 68.1791 28.282 68.2501 30.4837H63.1365ZM77.5346 63.2109V19.5746H82.563V35.6825H82.9891C83.3584 35.1143 83.8698 34.3899 84.5232 33.5092C85.1908 32.6143 86.1425 31.8189 87.3783 31.1229C88.6283 30.4126 90.3187 30.0575 92.4494 30.0575C95.205 30.0575 97.634 30.7464 99.7363 32.1243C101.839 33.5021 103.479 35.4553 104.658 37.9837C105.837 40.5121 106.427 43.495 106.427 46.9325C106.427 50.3984 105.837 53.4027 104.658 55.9453C103.479 58.4737 101.846 60.4339 99.7576 61.826C97.6695 63.2038 95.2619 63.8928 92.5346 63.8928C90.4323 63.8928 88.7491 63.5447 87.4849 62.8487C86.2207 62.1385 85.2476 61.3359 84.5658 60.4411C83.884 59.532 83.3584 58.7791 82.9891 58.1825H82.3925V63.2109H77.5346ZM82.4778 46.8473C82.4778 49.3189 82.84 51.4993 83.5644 53.3885C84.2888 55.2635 85.3471 56.7337 86.7391 57.799C88.1312 58.8501 89.8357 59.3757 91.8528 59.3757C93.955 59.3757 95.7093 58.8217 97.1155 57.7138C98.536 56.5916 99.6013 55.0859 100.312 53.1967C101.036 51.2933 101.398 49.1768 101.398 46.8473C101.398 44.5462 101.043 42.4723 100.333 40.6257C99.6369 38.7649 98.5786 37.2947 97.1582 36.2152C95.7519 35.1214 93.9834 34.5746 91.8528 34.5746C89.8073 34.5746 88.0886 35.093 86.6965 36.13C85.3045 37.1527 84.2533 38.5874 83.5431 40.4339C82.8329 42.2663 82.4778 44.4041 82.4778 46.8473ZM138.664 30.4837C138.408 28.3246 137.371 26.6484 135.553 25.4553C133.735 24.2621 131.505 23.6655 128.863 23.6655C126.931 23.6655 125.241 23.978 123.792 24.603C122.357 25.228 121.235 26.0874 120.425 27.1811C119.63 28.2749 119.232 29.5178 119.232 30.9098C119.232 32.0746 119.509 33.076 120.063 33.9141C120.631 34.7379 121.356 35.4268 122.236 35.9808C123.117 36.5206 124.04 36.968 125.006 37.3232C125.972 37.6641 126.86 37.9411 127.67 38.1541L132.101 39.3473C133.238 39.6456 134.502 40.0575 135.894 40.5831C137.3 41.1087 138.643 41.826 139.921 42.7351C141.214 43.63 142.279 44.7805 143.117 46.1868C143.955 47.593 144.374 49.3189 144.374 51.3643C144.374 53.7223 143.756 55.853 142.52 57.7564C141.299 59.6598 139.509 61.1726 137.151 62.2947C134.807 63.4169 131.959 63.978 128.607 63.978C125.482 63.978 122.776 63.4737 120.489 62.4652C118.216 61.4567 116.427 60.0504 115.12 58.2464C113.827 56.4425 113.096 54.3473 112.925 51.9609H118.38C118.522 53.6087 119.076 54.9723 120.042 56.0518C121.022 57.1172 122.258 57.9126 123.749 58.4382C125.255 58.9496 126.874 59.2053 128.607 59.2053C130.624 59.2053 132.435 58.8786 134.04 58.2251C135.645 57.5575 136.917 56.6342 137.854 55.4553C138.792 54.2621 139.26 52.87 139.26 51.2791C139.26 49.8303 138.856 48.6513 138.046 47.7422C137.236 46.8331 136.171 46.0945 134.85 45.5263C133.529 44.9581 132.101 44.4609 130.567 44.0348L125.198 42.5007C121.789 41.5206 119.09 40.1214 117.101 38.3033C115.113 36.4851 114.118 34.1058 114.118 31.1655C114.118 28.7223 114.779 26.5916 116.1 24.7734C117.435 22.9411 119.225 21.5206 121.469 20.5121C123.728 19.4893 126.249 18.978 129.033 18.978C131.846 18.978 134.346 19.4822 136.533 20.4908C138.721 21.4851 140.454 22.8487 141.732 24.5817C143.025 26.3146 143.706 28.282 143.777 30.4837H138.664Z" fill="black"/>
<path d="M94.7306 72.5495V79.8223H93.8499V72.5495H94.7306ZM99.2208 76.541V79.8223H98.3828V74.3677H99.1924V75.22H99.2634C99.3913 74.943 99.5854 74.7205 99.8458 74.5524C100.106 74.3819 100.442 74.2967 100.854 74.2967C101.224 74.2967 101.547 74.3725 101.824 74.524C102.101 74.6731 102.316 74.9004 102.47 75.2058C102.624 75.5088 102.701 75.8923 102.701 76.3564V79.8223H101.863V76.4132C101.863 75.9847 101.752 75.6509 101.529 75.4118C101.307 75.1703 101.001 75.0495 100.613 75.0495C100.345 75.0495 100.106 75.1075 99.8956 75.2235C99.6872 75.3395 99.5227 75.5088 99.4019 75.7314C99.2812 75.9539 99.2208 76.2238 99.2208 76.541ZM110.096 75.5893L109.343 75.8024C109.296 75.6769 109.226 75.555 109.134 75.4366C109.044 75.3159 108.921 75.2164 108.764 75.1383C108.608 75.0602 108.408 75.0211 108.164 75.0211C107.83 75.0211 107.552 75.0981 107.33 75.252C107.11 75.4035 106.999 75.5964 106.999 75.8308C106.999 76.0391 107.075 76.2037 107.227 76.3244C107.378 76.4451 107.615 76.5458 107.937 76.6262L108.747 76.8251C109.234 76.9435 109.598 77.1246 109.837 77.3684C110.076 77.6099 110.195 77.9212 110.195 78.3024C110.195 78.6149 110.105 78.8942 109.926 79.1404C109.748 79.3867 109.499 79.5808 109.18 79.7228C108.86 79.8649 108.489 79.9359 108.065 79.9359C107.508 79.9359 107.048 79.8152 106.683 79.5737C106.319 79.3322 106.088 78.9795 105.991 78.5154L106.786 78.3166C106.862 78.6101 107.005 78.8303 107.216 78.9771C107.429 79.1239 107.707 79.1973 108.051 79.1973C108.441 79.1973 108.751 79.1144 108.981 78.9487C109.213 78.7806 109.329 78.5794 109.329 78.345C109.329 78.1556 109.263 77.997 109.13 77.8691C108.998 77.7389 108.794 77.6419 108.519 77.5779L107.61 77.3649C107.111 77.2465 106.744 77.063 106.509 76.8145C106.277 76.5635 106.161 76.2498 106.161 75.8734C106.161 75.5656 106.248 75.2934 106.421 75.0566C106.596 74.8199 106.834 74.6341 107.134 74.4991C107.437 74.3642 107.781 74.2967 108.164 74.2967C108.704 74.2967 109.128 74.4151 109.436 74.6518C109.746 74.8886 109.966 75.2011 110.096 75.5893ZM115.829 74.3677V75.0779H113.002V74.3677H115.829ZM113.826 73.0609H114.664V78.2598C114.664 78.4965 114.699 78.6741 114.767 78.7924C114.838 78.9084 114.928 78.9866 115.037 79.0268C115.149 79.0647 115.266 79.0836 115.389 79.0836C115.481 79.0836 115.557 79.0789 115.616 79.0694C115.675 79.0576 115.723 79.0481 115.758 79.041L115.929 79.7939C115.872 79.8152 115.792 79.8365 115.691 79.8578C115.589 79.8815 115.46 79.8933 115.304 79.8933C115.067 79.8933 114.835 79.8424 114.608 79.7406C114.383 79.6388 114.196 79.4837 114.046 79.2754C113.9 79.0671 113.826 78.8043 113.826 78.487V73.0609ZM119.09 79.8223V74.3677H119.899V75.1916H119.956C120.056 74.9217 120.236 74.7027 120.496 74.5346C120.756 74.3665 121.05 74.2825 121.377 74.2825C121.438 74.2825 121.515 74.2837 121.608 74.286C121.7 74.2884 121.77 74.292 121.817 74.2967V75.149C121.789 75.1419 121.724 75.1312 121.622 75.117C121.522 75.1004 121.417 75.0922 121.306 75.0922C121.041 75.0922 120.804 75.1478 120.595 75.2591C120.39 75.368 120.226 75.5195 120.105 75.7136C119.987 75.9054 119.928 76.1243 119.928 76.3706V79.8223H119.09ZM128.248 77.5922V74.3677H129.086V79.8223H128.248V78.899H128.191C128.063 79.176 127.864 79.4115 127.595 79.6056C127.325 79.7974 126.984 79.8933 126.572 79.8933C126.231 79.8933 125.928 79.8187 125.663 79.6696C125.398 79.5181 125.189 79.2908 125.038 78.9877C124.886 78.6824 124.811 78.2976 124.811 77.8336V74.3677H125.649V77.7768C125.649 78.1745 125.76 78.4918 125.982 78.7285C126.207 78.9653 126.494 79.0836 126.842 79.0836C127.05 79.0836 127.262 79.0304 127.477 78.9238C127.695 78.8173 127.878 78.6539 128.024 78.4338C128.173 78.2136 128.248 77.9331 128.248 77.5922ZM134.837 79.9359C134.326 79.9359 133.885 79.8152 133.516 79.5737C133.147 79.3322 132.863 78.9996 132.664 78.5758C132.465 78.152 132.365 77.6679 132.365 77.1234C132.365 76.5694 132.467 76.0806 132.671 75.6568C132.877 75.2306 133.163 74.898 133.53 74.6589C133.899 74.4174 134.33 74.2967 134.823 74.2967C135.206 74.2967 135.552 74.3677 135.86 74.5098C136.167 74.6518 136.42 74.8507 136.616 75.1064C136.813 75.362 136.934 75.6603 136.982 76.0012H136.144C136.08 75.7527 135.938 75.5325 135.718 75.3407C135.5 75.1466 135.206 75.0495 134.837 75.0495C134.51 75.0495 134.224 75.1348 133.978 75.3052C133.734 75.4733 133.543 75.7112 133.406 76.019C133.271 76.3244 133.203 76.6831 133.203 77.095C133.203 77.5164 133.27 77.8833 133.402 78.1958C133.537 78.5083 133.727 78.751 133.97 78.9238C134.217 79.0967 134.506 79.1831 134.837 79.1831C135.055 79.1831 135.252 79.1452 135.43 79.0694C135.608 78.9937 135.758 78.8848 135.881 78.7427C136.004 78.6007 136.092 78.4302 136.144 78.2314H136.982C136.934 78.5533 136.817 78.8433 136.63 79.1014C136.446 79.3571 136.201 79.5607 135.895 79.7122C135.592 79.8613 135.239 79.9359 134.837 79.9359ZM142.579 74.3677V75.0779H139.752V74.3677H142.579ZM140.576 73.0609H141.414V78.2598C141.414 78.4965 141.449 78.6741 141.517 78.7924C141.588 78.9084 141.678 78.9866 141.787 79.0268C141.899 79.0647 142.016 79.0836 142.139 79.0836C142.231 79.0836 142.307 79.0789 142.366 79.0694C142.425 79.0576 142.473 79.0481 142.508 79.041L142.679 79.7939C142.622 79.8152 142.542 79.8365 142.441 79.8578C142.339 79.8815 142.21 79.8933 142.054 79.8933C141.817 79.8933 141.585 79.8424 141.358 79.7406C141.133 79.6388 140.946 79.4837 140.796 79.2754C140.65 79.0671 140.576 78.8043 140.576 78.487V73.0609ZM145.84 79.8223V74.3677H146.678V79.8223H145.84ZM146.266 73.4586C146.103 73.4586 145.962 73.403 145.843 73.2917C145.727 73.1805 145.669 73.0467 145.669 72.8904C145.669 72.7342 145.727 72.6004 145.843 72.4892C145.962 72.3779 146.103 72.3223 146.266 72.3223C146.429 72.3223 146.569 72.3779 146.685 72.4892C146.803 72.6004 146.863 72.7342 146.863 72.8904C146.863 73.0467 146.803 73.1805 146.685 73.2917C146.569 73.403 146.429 73.4586 146.266 73.4586ZM152.429 79.9359C151.936 79.9359 151.504 79.8187 151.133 79.5843C150.763 79.35 150.474 79.0221 150.266 78.6007C150.06 78.1793 149.957 77.6868 149.957 77.1234C149.957 76.5552 150.06 76.0592 150.266 75.6355C150.474 75.2117 150.763 74.8826 151.133 74.6483C151.504 74.4139 151.936 74.2967 152.429 74.2967C152.921 74.2967 153.352 74.4139 153.721 74.6483C154.093 74.8826 154.382 75.2117 154.588 75.6355C154.796 76.0592 154.9 76.5552 154.9 77.1234C154.9 77.6868 154.796 78.1793 154.588 78.6007C154.382 79.0221 154.093 79.35 153.721 79.5843C153.352 79.8187 152.921 79.9359 152.429 79.9359ZM152.429 79.1831C152.803 79.1831 153.111 79.0872 153.352 78.8954C153.594 78.7037 153.772 78.4515 153.888 78.139C154.004 77.8265 154.062 77.488 154.062 77.1234C154.062 76.7588 154.004 76.4191 153.888 76.1042C153.772 75.7894 153.594 75.5349 153.352 75.3407C153.111 75.1466 152.803 75.0495 152.429 75.0495C152.055 75.0495 151.747 75.1466 151.505 75.3407C151.264 75.5349 151.085 75.7894 150.969 76.1042C150.853 76.4191 150.795 76.7588 150.795 77.1234C150.795 77.488 150.853 77.8265 150.969 78.139C151.085 78.4515 151.264 78.7037 151.505 78.8954C151.747 79.0872 152.055 79.1831 152.429 79.1831ZM159.018 76.541V79.8223H158.18V74.3677H158.989V75.22H159.06C159.188 74.943 159.382 74.7205 159.643 74.5524C159.903 74.3819 160.239 74.2967 160.651 74.2967C161.021 74.2967 161.344 74.3725 161.621 74.524C161.898 74.6731 162.113 74.9004 162.267 75.2058C162.421 75.5088 162.498 75.8923 162.498 76.3564V79.8223H161.66V76.4132C161.66 75.9847 161.548 75.6509 161.326 75.4118C161.103 75.1703 160.798 75.0495 160.41 75.0495C160.142 75.0495 159.903 75.1075 159.692 75.2235C159.484 75.3395 159.32 75.5088 159.199 75.7314C159.078 75.9539 159.018 76.2238 159.018 76.541ZM169.893 75.5893L169.14 75.8024C169.093 75.6769 169.023 75.555 168.931 75.4366C168.841 75.3159 168.717 75.2164 168.561 75.1383C168.405 75.0602 168.205 75.0211 167.961 75.0211C167.627 75.0211 167.349 75.0981 167.127 75.252C166.906 75.4035 166.796 75.5964 166.796 75.8308C166.796 76.0391 166.872 76.2037 167.024 76.3244C167.175 76.4451 167.412 76.5458 167.734 76.6262L168.543 76.8251C169.031 76.9435 169.395 77.1246 169.634 77.3684C169.873 77.6099 169.992 77.9212 169.992 78.3024C169.992 78.6149 169.902 78.8942 169.722 79.1404C169.545 79.3867 169.296 79.5808 168.977 79.7228C168.657 79.8649 168.285 79.9359 167.862 79.9359C167.305 79.9359 166.845 79.8152 166.48 79.5737C166.116 79.3322 165.885 78.9795 165.788 78.5154L166.583 78.3166C166.659 78.6101 166.802 78.8303 167.013 78.9771C167.226 79.1239 167.504 79.1973 167.847 79.1973C168.238 79.1973 168.548 79.1144 168.778 78.9487C169.01 78.7806 169.126 78.5794 169.126 78.345C169.126 78.1556 169.06 77.997 168.927 77.8691C168.794 77.7389 168.591 77.6419 168.316 77.5779L167.407 77.3649C166.908 77.2465 166.541 77.063 166.306 76.8145C166.074 76.5635 165.958 76.2498 165.958 75.8734C165.958 75.5656 166.045 75.2934 166.217 75.0566C166.393 74.8199 166.631 74.6341 166.931 74.4991C167.234 74.3642 167.578 74.2967 167.961 74.2967C168.501 74.2967 168.925 74.4151 169.232 74.6518C169.543 74.8886 169.763 75.2011 169.893 75.5893Z" fill="black"/>
<defs>
<linearGradient id="paint0_linear_314_5557" x1="236.292" y1="39.905" x2="-9.02766" y2="37.577" gradientUnits="userSpaceOnUse">
<stop stop-color="#82A0B5"/>
<stop offset="0.808277" stop-color="#EEF8FF"/>
<stop offset="0.942119" stop-color="#D0D0D0" stop-opacity="0"/>
</linearGradient>
<clipPath id="clip0_314_5557">
<rect width="58.969" height="54.3137" fill="white" transform="matrix(0.000318927 -1 1 0.000375813 171.108 72.8486)"/>
</clipPath>
</defs>
</svg>
